<svg xmlns="http://www.w3.org/2000/svg" viewBox="0 0 48 48" width="48" height="48"><rect width="48" height="48" rx="8" fill="#fff"/><path d="M24 12c-6.627 0-12 5.373-12 12 0 5.303 3.438 9.799 8.207 11.387.6.11.793-.26.793-.577 0-.285-.01-1.04-.016-2.041-3.338.726-4.042-1.61-4.042-1.61-.546-1.386-1.333-1.756-1.333-1.756-1.09-.745.083-.73.083-.73 1.205.085 1.84 1.236 1.84 1.236 1.07 1.834 2.807 1.304 3.492.997.108-.775.418-1.304.76-1.604-2.665-.304-5.466-1.332-5.466-5.93 0-1.31.468-2.381 1.235-3.221-.124-.303-.536-1.524.116-3.176 0 0 1.008-.323 3.3 1.23a11.49 11.49 0 0 1 3.003-.404c1.019.005 2.045.138 3.003.404 2.291-1.553 3.297-1.23 3.297-1.23.653 1.653.241 2.874.118 3.176.77.84 1.233 1.911 1.233 3.221 0 4.61-2.805 5.624-5.476 5.921.43.371.814 1.102.814 2.222 0 1.606-.015 2.903-.015 3.297 0 .32.19.694.8.576C32.565 33.798 36 29.303 36 24c0-6.627-5.373-12-12-12z" fill="#000"/></svg>